<svg width="100" height="100" viewBox="0 0 100 100" fill="none" xmlns="http://www.w3.org/2000/svg">
<g id="Iconsax/Broken/notificationbing">
<path id="Vector" d="M50 26.8375V40.7125M85.7916 63.2083C88.8333 68.2917 86.4166 74.875 80.7916 76.75C60.8696 83.3749 39.3386 83.3749 19.4166 76.75C13.4166 74.75 11.125 68.6667 14.4166 63.2083L19.7083 54.375C21.1666 51.9583 22.3333 47.6667 22.3333 44.875V36.125C22.3278 32.4773 23.0416 28.8643 24.4337 25.4928C25.8258 22.1212 27.869 19.0571 30.4463 16.4759C33.0237 13.8946 36.0847 11.8468 39.4542 10.4497C42.8237 9.05249 46.4356 8.33334 50.0833 8.33334C65.3333 8.33334 77.8333 20.8333 77.8333 36.0833V44.8333C77.8333 45.5833 77.9166 46.4167 78.0416 47.2917" stroke="#272727" stroke-width="1.5" stroke-miterlimit="10" stroke-linecap="round"/>
<path id="Vector_2" d="M63.875 78.4167C63.875 86.0417 57.625 92.2917 50 92.2917C46.2083 92.2917 42.7083 90.7083 40.2083 88.2083C37.7083 85.7083 36.125 82.2083 36.125 78.4167" stroke="#272727" stroke-width="1.5" stroke-miterlimit="10"/>
</g>
</svg>
