<svg width="100" height="100" viewBox="0 0 100 100" fill="none" xmlns="http://www.w3.org/2000/svg">
<g id="Iconsax/Broken/receipt1">
<path id="Vector" d="M85.4167 29.3333C85.4167 12.5417 81.5 8.33334 65.75 8.33334H34.25C18.5 8.33334 14.5834 12.5417 14.5834 29.3333V76.25C14.5834 87.3333 20.6667 89.9583 28.0417 82.0417L28.0834 82C31.5 78.375 36.7084 78.6667 39.6667 82.625L43.875 88.25C47.25 92.7083 52.7084 92.7083 56.0834 88.25L60.2917 82.625C63.2917 78.625 68.5 78.3333 71.9167 82C79.3334 89.9167 85.375 87.2917 85.375 76.2083V45.8333M33.3334 29.1667H66.6667H33.3334ZM37.5 45.8333H62.5H37.5Z" fill="#E5D8F6"/>
</g>
</svg>
